# xmcd
#
# Track frame offsets: 
#        150
#        32550
#        68522
#        114400
#        185007
#        197565
#        210115
#        220885
#        250162
#
# Disc length: 3506 seconds
#
# Revision: 0
# Processed by: cddbd v1.5.1PL0 Copyright (c) Steve Scherf et al.
# Submitted via: ExactAudioCopy v0.95b3
#
DISCID=750db009
DTITLE=James Booker - United, Our Thing Will Stand - CD1
DYEAR=1999
DGENRE=Blues
TTITLE0=Let's Make a Better World
TTITLE1=So Swell When You're Well
TTITLE2=That's Life-Ain't Nobody's Business-Precious Lord
TTITLE3=Intro and Old Time Religion-Whole World-Closer Walk With Thee-Sa
TTITLE3=ints
TTITLE4=Blues Minuet
TTITLE5=Don't Try To Be Your Brother's Killer
TTITLE6=Intro and Put Out the Light
TTITLE7=Intro and One Hell of a Nerve
TTITLE8=Black Night
EXTD=
EXTT0=
EXTT1=
EXTT2=
EXTT3=
EXTT4=
EXTT5=
EXTT6=
EXTT7=
EXTT8=
PLAYORDER=
